# xmcd
#
# Track frame offsets:
#	150
#	7783
#	19326
#	33200
#	42706
#	54401
#	67066
#	81379
#	91588
#	103083
#	114241
#	126420
#	137896
#	150404
#	162059
#	174052
#	187214
#	199281
#	209835
#	221769
#	233346
#	245107
#	256354
#	267553
#	278891
#	291622
#	306860
#	316010
#	326622
#	338056
#	349592
#
# Disc length: 4840 seconds
#
# Revision: 2
# Processed by: cddbd v1.5.2PL0 Copyright (c) Steve Scherf et al.
# Submitted via: audiograbber 1.83.01
#
DISCID=d012e61f
DTITLE=Various Artist - Country and Western Hit Parade 1955
DYEAR=2009
DGENRE=Country
TTITLE0=Fess Parker - Ballad Of Davy Crockett
TTITLE1=Ferlin Husky - I Feel Better All Over (More Than Anywheres Else)
TTITLE2=Jimmy Work - Makin' Believe
TTITLE3=Webb Pierce - In The Jailhouse Now
TTITLE4=Eddy Arnold - Just Call Me Lonesome
TTITLE5=Jimmy Martin and The Osborne Brothers - 20/20 Vision
TTITLE6=Bud Deckelman with the Daydreamers - Daydreamin'
TTITLE7=Charlie Feathers - Peepin' Eyes
TTITLE8=The Louvin Brothers - When I Stop Dreaming
TTITLE9=Jimmy Dean - Big Blue Diamonds
TTITLE10=George Jones - Why Baby Why
TTITLE11=Johnny Cash and the Tennessee Two  - Cry! Cry! Cry!
TTITLE12=Ray Price - Run Boy
TTITLE13=Little Jimmy Dickens - We Could
TTITLE14=Flatt and Scruggs - Before I Met You
TTITLE15=Hylo Brown - Lost To A Stranger
TTITLE16=Carl Smith - There She Goes
TTITLE17=Faron Young - Live Fast, Love Hard, Die Young
TTITLE18=Tennessee Ernie Ford - Sixteen Tons
TTITLE19=Eddy Arnold - The Cattle Call
TTITLE20=Jim Reeves - Yonder Comes A Sucker
TTITLE21=Hank Snow - Let Me Go, Lover!
TTITLE22=Ernest Tubb - The Yellow Rose Of Texas
TTITLE23=Webb Pierce - I Don't Care
TTITLE24=Porter Wagoner - A Satisfied Mind
TTITLE25=The Webster Brothers and Carl Butler - Angel Band
TTITLE26=Arthur Smith and Don Reno - Feudin' Banjos
TTITLE27=Rusty and Doug - So Lovely Baby
TTITLE28=Elvis Presley - Scotty and Bill - I Forgot To Remember To Forget
TTITLE29=Marty Robbins - Maybellene
TTITLE30=Jimmie Rodgers and the Rainbow Ranch Boys - In The Jailhouse Now No. 2
EXTD=
EXTT0=
EXTT1=
EXTT2=
EXTT3=
EXTT4=
EXTT5=
EXTT6=
EXTT7=
EXTT8=
EXTT9=
EXTT10=
EXTT11=
EXTT12=
EXTT13=
EXTT14=
EXTT15=
EXTT16=
EXTT17=
EXTT18=
EXTT19=
EXTT20=
EXTT21=
EXTT22=
EXTT23=
EXTT24=
EXTT25=
EXTT26=
EXTT27=
EXTT28=
EXTT29=
EXTT30=
PLAYORDER=
